<svg width="40" height="40" viewBox="0 0 40 40" fill="none" xmlns="http://www.w3.org/2000/svg">
<path fill-rule="evenodd" clip-rule="evenodd" d="M5.8272 22.4404L7.82804 25.0481L8.25822 28.2928C8.49678 30.0934 9.91262 31.5106 11.713 31.7509L14.9677 32.1845L17.5571 34.1719C18.999 35.2744 21.0006 35.2744 22.4425 34.1719L25.0502 32.1811L28.2982 31.7509C30.0988 31.5124 31.516 30.0965 31.7563 28.2962L32.1898 25.0415C32.1898 25.0415 33.1903 23.7243 34.1907 22.4371C35.2914 20.9958 35.2914 18.9962 34.1907 17.555L32.1898 14.9473L31.7597 11.7026C31.5211 9.902 30.1053 8.48478 28.3049 8.24448L25.0502 7.81097L22.4425 5.82681C21.0006 4.7244 18.999 4.7244 17.5571 5.82681L14.9493 7.8143L11.7047 8.24448C9.90406 8.48304 8.48684 9.89889 8.24654 11.6993L7.81303 14.9539C7.81303 14.9539 6.81261 16.2712 5.8122 17.5584C4.71591 19.003 4.72205 21.0026 5.8272 22.4404Z" fill="currentColor" stroke="currentColor" stroke-width="1.5" stroke-linecap="round" stroke-linejoin="round"/>
<path fill-rule="evenodd" clip-rule="evenodd" d="M19.9992 19.374C22.7617 19.374 25.0012 21.6135 25.0012 24.3761C25.0012 25.297 24.2547 26.0435 23.3339 26.0435H16.6644C15.7436 26.0435 14.9971 25.297 14.9971 24.3761C14.9971 21.6135 17.2366 19.374 19.9992 19.374Z" fill="currentColor" stroke="currentColor" stroke-width="1.5" stroke-linecap="round" stroke-linejoin="round"/>
<path fill-rule="evenodd" clip-rule="evenodd" d="M14.9971 15.6229C14.7671 15.6238 14.5813 15.8109 14.5819 16.0409C14.5825 16.2708 14.7693 16.4569 14.9993 16.4566C15.2293 16.4563 15.4156 16.2697 15.4156 16.0397C15.416 15.9288 15.372 15.8222 15.2934 15.7439C15.2147 15.6656 15.108 15.622 14.9971 15.6229Z" fill="currentColor"/>
<path d="M14.9971 15.6229C14.7671 15.6238 14.5813 15.8109 14.5819 16.0409C14.5825 16.2708 14.7693 16.4569 14.9993 16.4566C15.2293 16.4563 15.4156 16.2697 15.4156 16.0397C15.416 15.9288 15.372 15.8222 15.2934 15.7439C15.2147 15.6656 15.108 15.622 14.9971 15.6229" stroke="currentColor" stroke-width="1.5" stroke-linecap="round" stroke-linejoin="round"/>
<path fill-rule="evenodd" clip-rule="evenodd" d="M25.0019 15.6229C24.7719 15.6238 24.5861 15.8109 24.5868 16.0409C24.5874 16.2708 24.7742 16.4569 25.0042 16.4566C25.2342 16.4563 25.4204 16.2697 25.4204 16.0397C25.4209 15.9288 25.3769 15.8222 25.2983 15.7439C25.2196 15.6656 25.1129 15.622 25.0019 15.6229Z" fill="currentColor"/>
<path d="M25.0019 15.6229C24.7719 15.6238 24.5861 15.8109 24.5868 16.0409C24.5874 16.2708 24.7742 16.4569 25.0042 16.4566C25.2342 16.4563 25.4204 16.2697 25.4204 16.0397C25.4209 15.9288 25.3769 15.8222 25.2983 15.7439C25.2196 15.6656 25.1129 15.622 25.0019 15.6229" stroke="currentColor" stroke-width="1.5" stroke-linecap="round" stroke-linejoin="round"/>
<path fill-rule="evenodd" clip-rule="evenodd" d="M20 13.9549C19.77 13.9559 19.5842 14.1429 19.5848 14.3729C19.5854 14.6029 19.7722 14.7889 20.0022 14.7886C20.2322 14.7883 20.4185 14.6018 20.4185 14.3718C20.4189 14.2608 20.3749 14.1543 20.2963 14.0759C20.2177 13.9976 20.111 13.954 20 13.9549Z" fill="currentColor"/>
<path d="M20 13.9549C19.77 13.9559 19.5842 14.1429 19.5848 14.3729C19.5854 14.6029 19.7722 14.7889 20.0022 14.7886C20.2322 14.7883 20.4185 14.6018 20.4185 14.3718C20.4189 14.2608 20.3749 14.1543 20.2963 14.0759C20.2177 13.9976 20.111 13.954 20 13.9549" stroke="currentColor" stroke-width="1.5" stroke-linecap="round" stroke-linejoin="round"/>
</svg>
