<svg width="32" height="32" viewBox="0 0 32 32" fill="none" xmlns="http://www.w3.org/2000/svg">
<path fill-rule="evenodd" clip-rule="evenodd" d="M15.2888 14.833V14.833C17.4988 14.833 19.2904 16.6246 19.2904 18.8347V18.8347C19.2904 19.5714 18.6932 20.1686 17.9566 20.1686H12.621C11.8843 20.1686 11.2871 19.5714 11.2871 18.8347V18.8347C11.2871 16.6246 13.0787 14.833 15.2888 14.833V14.833Z" stroke="#FF9900" stroke-width="1.5" stroke-linecap="round" stroke-linejoin="round"/>
<path d="M22.3322 8.24641C26.2218 12.1361 26.2218 18.4425 22.3321 22.3322C18.4424 26.2218 12.1361 26.2218 8.24638 22.3322C4.3567 18.4425 4.35667 12.1361 8.24632 8.24641C10.1142 6.37849 12.6476 5.3291 15.2893 5.3291C17.9309 5.3291 20.4643 6.37849 22.3322 8.24641" stroke="#FF9900" stroke-width="1.5" stroke-linecap="round" stroke-linejoin="round"/>
<path d="M26.6712 26.6712L22.332 22.332" stroke="#FF9900" stroke-width="1.5" stroke-linecap="round" stroke-linejoin="round"/>
<path d="M11.2857 11.8315C11.1017 11.8323 10.9531 11.9819 10.9536 12.1659C10.9541 12.3499 11.1035 12.4987 11.2875 12.4985C11.4715 12.4982 11.6205 12.349 11.6205 12.165C11.6209 12.0762 11.5857 11.991 11.5228 11.9283C11.4599 11.8657 11.3745 11.8308 11.2857 11.8315" stroke="#FF9900" stroke-width="1.5" stroke-linecap="round" stroke-linejoin="round"/>
<path d="M19.2896 11.8315C19.1056 11.8323 18.957 11.9819 18.9575 12.1659C18.958 12.3499 19.1074 12.4987 19.2914 12.4985C19.4754 12.4982 19.6244 12.349 19.6244 12.165C19.6248 12.0762 19.5896 11.991 19.5267 11.9283C19.4638 11.8657 19.3784 11.8308 19.2896 11.8315" stroke="#FF9900" stroke-width="1.5" stroke-linecap="round" stroke-linejoin="round"/>
<path d="M15.2877 10.4975C15.1037 10.4983 14.9551 10.6479 14.9555 10.8319C14.956 11.0159 15.1055 11.1647 15.2895 11.1645C15.4735 11.1642 15.6225 11.015 15.6225 10.831C15.6228 10.7422 15.5876 10.657 15.5247 10.5943C15.4618 10.5317 15.3765 10.4968 15.2877 10.4975" stroke="#FF9900" stroke-width="1.5" stroke-linecap="round" stroke-linejoin="round"/>
</svg>
