<svg width="48" height="48" viewBox="0 0 48 48" fill="none" xmlns="http://www.w3.org/2000/svg">
<g clip-path="url(#clip0_6114_2672)">
<path fill-rule="evenodd" clip-rule="evenodd" d="M48 0H0V48H48V0ZM17.1484 13C18.049 12.9833 18.9484 13.0756 19.8269 13.275C20.5665 13.4365 21.2687 13.737 21.8963 14.1605C22.4758 14.5817 22.9343 15.1479 23.2259 15.8023C23.5609 16.607 23.7226 17.4733 23.7002 18.3447C23.7383 19.3014 23.4939 20.2483 22.9976 21.0672C22.4755 21.8406 21.7538 22.4582 20.909 22.8547C22.0554 23.1637 23.0539 23.8717 23.725 24.8512C24.3692 25.889 24.693 27.0938 24.6559 28.3148C24.6771 29.2883 24.4758 30.2538 24.0674 31.1377C23.6898 31.9087 23.137 32.5807 22.4531 33.0998C21.7491 33.6132 20.9568 33.993 20.1156 34.2204C19.2433 34.4617 18.3422 34.5829 17.4371 34.5807H7.5V13H17.1484ZM16.575 21.7285C17.2827 21.7577 17.9793 21.5459 18.5509 21.1277C18.8246 20.884 19.0376 20.5796 19.1727 20.2389C19.3078 19.8982 19.3614 19.5306 19.3291 19.1655C19.3474 18.7391 19.2625 18.3146 19.0816 17.928C18.9282 17.6203 18.6895 17.363 18.3941 17.1869C18.0949 16.9931 17.7588 16.8634 17.4069 16.806C17.0251 16.7321 16.6366 16.6984 16.2477 16.7057H12.0017V21.7478H16.575V21.7285ZM16.8225 30.9163C17.2505 30.9221 17.6775 30.8759 18.0944 30.7788C18.4753 30.6947 18.8366 30.5383 19.1586 30.3182C19.4741 30.0981 19.729 29.8021 19.8997 29.4574C20.0977 29.0179 20.1886 28.5377 20.1651 28.0563C20.208 27.6175 20.1499 27.1748 19.9952 26.762C19.8406 26.3492 19.5934 25.9773 19.2728 25.6748C18.5931 25.1742 17.7602 24.9262 16.9174 24.9735H12.0017V30.9163H16.8225ZM31.0675 30.8365C31.4208 31.164 31.8371 31.4163 32.2909 31.578C32.7447 31.7396 33.2267 31.8074 33.7075 31.777C34.4697 31.7963 35.2172 31.5644 35.8346 31.117C36.3369 30.7904 36.7173 30.3071 36.9167 29.742H40.5069C40.1243 31.3505 39.1902 32.7741 37.8669 33.7653C36.5973 34.6079 35.0971 35.0347 33.5741 34.9863C32.4872 35.0005 31.4084 34.7962 30.402 34.3854C29.4916 34.0057 28.6751 33.4318 28.0095 32.7038C27.3464 31.9409 26.837 31.0571 26.5094 30.1009C26.1415 29.0321 25.9615 27.9077 25.9772 26.7775C25.9705 25.6663 26.1566 24.5623 26.5272 23.5147C27.0251 22.0408 27.9771 20.7626 29.2466 19.8634C30.5161 18.9642 32.0378 18.4903 33.5934 18.5097C34.7418 18.4857 35.8775 18.7544 36.8934 19.2907C37.8116 19.7942 38.6038 20.4994 39.2102 21.3532C39.8306 22.249 40.2753 23.2546 40.5206 24.3163C40.7897 25.4564 40.8856 26.6305 40.8052 27.7992H30.1119C30.0252 28.8971 30.3678 29.9859 31.0675 30.8365ZM35.759 22.6292C35.4598 22.3298 35.0998 22.0981 34.7035 21.9497C34.3072 21.8012 33.8836 21.7394 33.4614 21.7684C32.9012 21.747 32.3451 21.8712 31.8471 22.1287C31.4524 22.346 31.1039 22.6384 30.8214 22.9894C30.571 23.3185 30.3844 23.6916 30.2714 24.0894C30.1695 24.4212 30.1058 24.7635 30.0816 25.1097H36.705C36.6473 24.2072 36.3185 23.3431 35.7617 22.6305L35.759 22.6292ZM37.5273 14.441H29.2278V16.5627H37.5273V14.441Z" fill="currentColor"/>
</g>
<defs>
<clipPath id="clip0_6114_2672">
<rect width="48" height="48" rx="12" fill="white"/>
</clipPath>
</defs>
</svg>
