<svg width="14" height="14" viewBox="0 0 14 14" fill="none" xmlns="http://www.w3.org/2000/svg">
<path d="M5.54102 1.16699H8.45768C10.4993 1.16699 10.791 1.51783 10.791 3.50033V4.95866C10.791 6.94116 10.4993 7.29199 8.45768 7.29199H5.54102C3.50018 7.29199 3.20852 6.94283 3.20852 4.95866V3.50033C3.20852 1.51783 3.50018 1.16699 5.54102 1.16699Z" stroke="#1B1B1B" stroke-width="1.5" stroke-linecap="round" stroke-linejoin="round"/>
<path d="M8.75 7.29199V9.04199C8.75 10.15 8.75 10.5 7.58333 10.5H6.41667C5.25 10.5 5.25 10.15 5.25 9.04199V7.29199" stroke="#1B1B1B" stroke-width="1.5" stroke-linecap="round" stroke-linejoin="round"/>
<path d="M12.8337 4.08301V9.91634C12.8337 11.958 12.4828 12.833 10.5003 12.833H3.50033C1.51783 12.833 1.16699 11.958 1.16699 9.91634V4.08301C1.16699 2.04134 1.51783 1.16634 3.50033 1.16634H4.08366" stroke="#1B1B1B" stroke-width="1.5" stroke-linecap="round" stroke-linejoin="round"/>
<path d="M9.91699 1.16634H10.5003C12.4828 1.16634 12.8337 2.04134 12.8337 4.08301" stroke="#1B1B1B" stroke-width="1.5" stroke-linecap="round" stroke-linejoin="round"/>
<path d="M7 10.5V11.6667" stroke="#1B1B1B" stroke-width="1.5" stroke-linecap="round" stroke-linejoin="round"/>
</svg>
