<svg width="32" height="32" viewBox="0 0 32 32" fill="none" xmlns="http://www.w3.org/2000/svg">
<path fill-rule="evenodd" clip-rule="evenodd" d="M19.2426 16.1549H20.9433C22.1493 16.1549 23.1269 15.1773 23.1269 13.9713V13.9713C23.1272 13.392 22.8973 12.8362 22.4878 12.4265C22.0783 12.0167 21.5227 11.7864 20.9433 11.7864H20.2137V11.0648C20.2137 9.8581 19.2354 8.87988 18.0288 8.87988V8.87988C16.8228 8.87988 15.8452 9.8575 15.8452 11.0635V12.7575C15.8443 13.0077 15.7446 13.2474 15.5677 13.4244L13.0093 15.9868C12.8322 16.1634 12.5925 16.2631 12.3424 16.2643H10.6377C9.43172 16.2643 8.4541 17.2419 8.4541 18.4479V18.4479C8.45375 19.0272 8.68365 19.583 9.09319 19.9928C9.50272 20.4025 10.0583 20.6328 10.6377 20.6328H11.3673V21.3611C11.3673 22.5678 12.3455 23.546 13.5522 23.546V23.546C14.7571 23.5445 15.7331 22.5673 15.7331 21.3624V19.6617C15.734 19.4115 15.8337 19.1718 16.0106 18.9948L18.569 16.4364C18.7471 16.2567 18.9896 16.1554 19.2426 16.1549Z" stroke="currentColor" stroke-width="1.5" stroke-linecap="round" stroke-linejoin="round"/>
<circle cx="16.0001" cy="16.0001" r="12.005" stroke="currentColor" stroke-width="1.5" stroke-linecap="round" stroke-linejoin="round"/>
</svg>
