<svg width="32" height="32" viewBox="0 0 32 32" fill="none" xmlns="http://www.w3.org/2000/svg">
<path d="M26.6709 14.1611V26.6717" stroke="#FF9900" stroke-width="1.5" stroke-linecap="round" stroke-linejoin="round"/>
<path d="M6.6628 26.6709H2.66113" stroke="#FF9900" stroke-width="1.5" stroke-linecap="round" stroke-linejoin="round"/>
<path fill-rule="evenodd" clip-rule="evenodd" d="M15.9997 22.6699V22.6699C18.2098 22.6699 20.0014 24.4615 20.0014 26.6716V26.6716C20.0014 27.4083 19.4042 28.0055 18.6675 28.0055H13.3319C12.5952 28.0055 11.998 27.4083 11.998 26.6716V26.6716C11.998 24.4615 13.7897 22.6699 15.9997 22.6699Z" stroke="#FF9900" stroke-width="1.5" stroke-linecap="round" stroke-linejoin="round"/>
<path d="M5.32905 14.1582V26.6714" stroke="#FF9900" stroke-width="1.5" stroke-linecap="round" stroke-linejoin="round"/>
<path d="M25.0039 14.6662V14.6662C26.6614 14.6662 28.0051 13.3225 28.0051 11.665V11.4956C28.0051 10.9518 27.8572 10.4183 27.577 9.95226L24.7758 5.29032C24.2946 4.4884 23.4287 3.99698 22.4935 3.99512H9.50678C8.57028 3.99512 7.70236 4.48616 7.22004 5.2889L4.41799 9.95226C4.1396 10.4188 3.99343 10.9523 3.99513 11.4956V11.665C3.99513 13.3225 5.33885 14.6662 6.9964 14.6662V14.6662" stroke="#FF9900" stroke-width="1.5" stroke-linecap="round" stroke-linejoin="round"/>
<path d="M29.3386 26.6709H25.3369" stroke="#FF9900" stroke-width="1.5" stroke-linecap="round" stroke-linejoin="round"/>
<path d="M25.0036 14.6658C23.6754 14.6657 22.5051 13.793 22.1261 12.5201C22.1137 12.4617 22.0621 12.4199 22.0023 12.4199C21.9426 12.4199 21.891 12.4617 21.8786 12.5201C21.4996 13.7931 20.3293 14.6658 19.0011 14.6658C17.6729 14.6658 16.5026 13.7931 16.1236 12.5201C16.1112 12.4617 16.0596 12.4199 15.9998 12.4199C15.9401 12.4199 15.8885 12.4617 15.8761 12.5201C15.4971 13.7931 14.3268 14.6658 12.9986 14.6658C11.6704 14.6658 10.5001 13.7931 10.1211 12.5201C10.1087 12.4617 10.0571 12.4199 9.99734 12.4199C9.93762 12.4199 9.88604 12.4617 9.87363 12.5201C9.49457 13.793 8.32425 14.6657 6.99609 14.6658" stroke="#FF9900" stroke-width="1.5" stroke-linecap="round" stroke-linejoin="round"/>
<path d="M16.3344 18.6683C16.3342 18.8524 16.1848 19.0015 16.0008 19.0014C15.8167 19.0013 15.6675 18.8521 15.6675 18.6681C15.6674 18.484 15.8164 18.3347 16.0005 18.3344C16.0891 18.3343 16.1741 18.3695 16.2367 18.4321C16.2994 18.4948 16.3345 18.5797 16.3344 18.6683" stroke="#FF9900" stroke-width="1.5" stroke-linecap="round" stroke-linejoin="round"/>
<path d="M20.3354 20.0023C20.3351 20.1864 20.1858 20.3355 20.0018 20.3354C19.8177 20.3353 19.6685 20.1861 19.6684 20.002C19.6684 19.818 19.8174 19.6687 20.0015 19.6684C20.0901 19.6683 20.1751 19.7035 20.2377 19.7661C20.3003 19.8287 20.3355 19.9137 20.3354 20.0023" stroke="#FF9900" stroke-width="1.5" stroke-linecap="round" stroke-linejoin="round"/>
<path d="M12.3324 20.0023C12.3322 20.1864 12.1829 20.3355 11.9988 20.3354C11.8148 20.3353 11.6656 20.1861 11.6655 20.002C11.6654 19.818 11.8145 19.6687 11.9985 19.6684C12.0871 19.6683 12.1721 19.7035 12.2348 19.7661C12.2974 19.8287 12.3326 19.9137 12.3324 20.0023" stroke="#FF9900" stroke-width="1.5" stroke-linecap="round" stroke-linejoin="round"/>
</svg>
