<svg width="48" height="48" viewBox="0 0 48 48" fill="none" xmlns="http://www.w3.org/2000/svg">
<g clip-path="url(#clip0_6114_2676)">
<path fill-rule="evenodd" clip-rule="evenodd" d="M48 0H0V48H48V0ZM7 24C7 14.615 14.615 7 24 7C33.3666 7 41 14.615 41 24C41 33.385 33.3666 41 24 41C14.615 41 7 33.385 7 24ZM38.5109 23.8709C38.474 20.4599 37.257 17.3069 35.2288 14.8362C34.9154 15.2419 32.4816 18.3764 27.1345 20.5521C27.4664 21.2343 27.7983 21.9534 28.0933 22.654C28.1393 22.7615 28.1822 22.8689 28.2245 22.9751C28.2839 23.1239 28.3422 23.2701 28.4067 23.41C33.1067 22.818 37.7718 23.727 38.4625 23.8615C38.4817 23.8653 38.4979 23.8684 38.5109 23.8709ZM33.6247 13.1584C31.0618 10.8905 27.6876 9.50759 24 9.50759C22.82 9.50759 21.6768 9.63666 20.5889 9.89479L20.6084 9.92137C21.0727 10.5541 23.6665 14.0897 26.0098 18.3948C31.1724 16.4588 33.3666 13.5271 33.6247 13.1584ZM23.2072 19.2614C20.7918 14.9837 18.2104 11.3883 17.8232 10.872C13.7668 12.7896 10.7245 16.5325 9.78416 21.0315C9.79526 21.0315 9.80793 21.0315 9.82216 21.0315C10.6358 21.0322 16.5385 21.0373 23.2072 19.2614ZM9.47072 23.5759V24.0184C9.47072 27.743 10.8905 31.154 13.1952 33.7169C13.5271 33.1638 17.5098 26.5629 24.9957 24.1475C25.0875 24.1199 25.184 24.0924 25.2805 24.0648C25.3776 24.0371 25.4747 24.0093 25.5672 23.9816C25.1985 23.1518 24.8113 22.3221 24.3872 21.5109C17.141 23.6866 10.0976 23.5943 9.47072 23.5759ZM15.0943 35.4685C17.5466 37.3861 20.6443 38.5293 24 38.5293C26.0098 38.5293 27.9273 38.1236 29.679 37.3677C29.4577 36.0954 28.628 31.6518 26.5813 26.3601C26.5629 26.3693 26.549 26.3739 26.5352 26.3786C26.5214 26.3832 26.5076 26.3878 26.4891 26.397C18.3026 29.2549 15.3525 34.9339 15.0943 35.4685ZM29.2733 25.6963C31.1725 30.9143 31.9469 35.1551 32.0944 36.0401C35.3579 33.846 37.6811 30.3612 38.308 26.3232C37.8102 26.1573 33.8276 24.9772 29.2733 25.6963Z" fill="#FF9900"/>
</g>
<defs>
<clipPath id="clip0_6114_2676">
<rect width="48" height="48" rx="12" fill="white"/>
</clipPath>
</defs>
</svg>
